<svg width="173" height="43" fill="none" xmlns="http://www.w3.org/2000/svg"><g filter="url(#filter0_d)"><path d="M21.117 20h-2.263l-5.792 12.494a1.764 1.764 0 001.6 2.506h6.455a7.5 7.5 0 006.795-4.325C30.235 25.702 26.606 20 21.117 20z" fill="url(#paint0_linear)"/></g><g filter="url(#filter1_d)"><path d="M23.227 5h-6.483a7.5 7.5 0 00-6.805 4.345C7.635 14.316 11.265 20 16.744 20h2.247l5.835-12.488A1.765 1.765 0 0023.226 5z" fill="url(#paint1_linear)"/></g><path d="M41.23 17.05c0 .58.29 1.05.87 1.41.58.34 1.28.62 2.1.84.82.2 1.64.44 2.46.72.82.26 1.52.72 2.1 1.38.58.64.87 1.47.87 2.49 0 1.36-.53 2.45-1.59 3.27-1.04.82-2.38 1.23-4.02 1.23-1.46 0-2.71-.32-3.75-.96-1.04-.64-1.78-1.49-2.22-2.55l2.25-1.29c.24.72.69 1.29 1.35 1.71.66.42 1.45.63 2.37.63.86 0 1.57-.16 2.13-.48.56-.34.84-.86.84-1.56 0-.58-.29-1.04-.87-1.38-.58-.36-1.28-.64-2.1-.84-.82-.22-1.64-.47-2.46-.75-.82-.28-1.52-.74-2.1-1.38-.58-.64-.87-1.46-.87-2.46 0-1.3.5-2.37 1.5-3.21 1.02-.84 2.29-1.26 3.81-1.26 1.22 0 2.3.28 3.24.84.96.54 1.68 1.3 2.16 2.28l-2.19 1.23c-.54-1.28-1.61-1.92-3.21-1.92-.74 0-1.37.18-1.89.54-.52.34-.78.83-.78 1.47zM62.924 13h2.61v15h-2.61v-2.16c-1.06 1.7-2.68 2.55-4.86 2.55-1.76 0-3.17-.55-4.23-1.65-1.06-1.12-1.59-2.63-1.59-4.53V13h2.61v9.06c0 1.22.33 2.17.99 2.85.66.66 1.57.99 2.73.99 1.3 0 2.35-.4 3.15-1.2.8-.82 1.2-2.07 1.2-3.75V13zm14.863-.39c2.1 0 3.89.77 5.37 2.31 1.48 1.52 2.22 3.38 2.22 5.58s-.74 4.07-2.22 5.61c-1.48 1.52-3.27 2.28-5.37 2.28-2.48 0-4.37-.99-5.67-2.97V28h-2.61V7h2.61v8.58c1.3-1.98 3.19-2.97 5.67-2.97zm-.33 13.26c1.5 0 2.76-.51 3.78-1.53 1.02-1.04 1.53-2.32 1.53-3.84s-.51-2.79-1.53-3.81c-1.02-1.04-2.28-1.56-3.78-1.56-1.52 0-2.79.52-3.81 1.56-1.02 1.02-1.53 2.29-1.53 3.81s.51 2.8 1.53 3.84c1.02 1.02 2.29 1.53 3.81 1.53zM88.492 28V6.1h2.61V28h-2.61zm7.911-17.73c-.5 0-.92-.17-1.26-.51-.34-.34-.51-.75-.51-1.23s.17-.89.51-1.23c.34-.36.76-.54 1.26-.54.48 0 .89.18 1.23.54.34.34.51.75.51 1.23s-.17.89-.51 1.23c-.34.34-.75.51-1.23.51zM95.084 28V13h2.61v15h-2.61zm22.792-15.39c1.68 0 3.04.55 4.08 1.65 1.04 1.08 1.56 2.55 1.56 4.41V28h-2.61v-9.24c0-1.16-.3-2.06-.9-2.7-.6-.64-1.4-.96-2.4-.96-1.12 0-2.02.38-2.7 1.14-.66.74-.99 1.88-.99 3.42V28h-2.61v-9.24c0-1.16-.29-2.06-.87-2.7-.56-.64-1.33-.96-2.31-.96-1.1 0-2.02.38-2.76 1.14-.72.76-1.08 1.9-1.08 3.42V28h-2.61V13h2.61v2.01c1.02-1.6 2.51-2.4 4.47-2.4 2.02 0 3.49.85 4.41 2.55 1.04-1.7 2.61-2.55 4.71-2.55zm21.679.39h2.61v15h-2.61v-2.58c-1.3 1.98-3.19 2.97-5.67 2.97-2.1 0-3.89-.76-5.37-2.28-1.48-1.54-2.22-3.41-2.22-5.61s.74-4.06 2.22-5.58c1.48-1.54 3.27-2.31 5.37-2.31 2.48 0 4.37.99 5.67 2.97V13zm-5.34 12.87c1.52 0 2.79-.51 3.81-1.53 1.02-1.04 1.53-2.32 1.53-3.84s-.51-2.79-1.53-3.81c-1.02-1.04-2.29-1.56-3.81-1.56-1.5 0-2.76.52-3.78 1.56-1.02 1.02-1.53 2.29-1.53 3.81s.51 2.8 1.53 3.84c1.02 1.02 2.28 1.53 3.78 1.53zm20.065-10.35h-3.99v8.13c0 .74.14 1.27.42 1.59.3.3.75.46 1.35.48.6 0 1.34-.02 2.22-.06V28c-2.28.3-3.95.12-5.01-.54-1.06-.68-1.59-1.95-1.59-3.81v-8.13h-2.97V13h2.97V9.58l2.61-.78V13h3.99v2.52zm4.158 6.18c.26 1.34.87 2.38 1.83 3.12.98.74 2.18 1.11 3.6 1.11 1.98 0 3.42-.73 4.32-2.19l2.22 1.26c-1.46 2.26-3.66 3.39-6.6 3.39-2.38 0-4.32-.74-5.82-2.22-1.48-1.5-2.22-3.39-2.22-5.67 0-2.26.73-4.14 2.19-5.64s3.35-2.25 5.67-2.25c2.2 0 3.99.78 5.37 2.34 1.4 1.54 2.1 3.4 2.1 5.58 0 .38-.03.77-.09 1.17h-12.57zm5.19-6.63c-1.4 0-2.56.4-3.48 1.2-.92.78-1.49 1.83-1.71 3.15h10.02c-.22-1.42-.78-2.5-1.68-3.24-.9-.74-1.95-1.11-3.15-1.11z" fill="url(#paint2_linear)"/><defs><linearGradient id="paint0_linear" x1="31.879" y1="20.481" x2="10.877" y2="30.499" gradientUnits="userSpaceOnUse"><stop stop-color="#7D60F4"/><stop offset="1" stop-color="#E791F5"/></linearGradient><linearGradient id="paint1_linear" x1="26" y1="5" x2="3.91" y2="15.131" gradientUnits="userSpaceOnUse"><stop stop-color="#E791F5"/><stop offset="1" stop-color="#7D60F4"/></linearGradient><linearGradient id="paint2_linear" x1="105" y1="2" x2="105" y2="38" gradientUnits="userSpaceOnUse"><stop stop-color="#E791F5"/><stop offset="1" stop-color="#7D60F4"/></linearGradient><filter id="filter0_d" x="8.896" y="20" width="23.73" height="23" filterUnits="userSpaceOnUse" color-interpolation-filters="sRGB"><feFlood flood-opacity="0" result="BackgroundImageFix"/><feColorMatrix in="SourceAlpha" values="0 0 0 0 0 0 0 0 0 0 0 0 0 0 0 0 0 0 127 0"/><feOffset dy="4"/><feGaussianBlur stdDeviation="2"/><feColorMatrix values="0 0 0 0 0.443137 0 0 0 0 0.317647 0 0 0 0 0.960784 0 0 0 0.2 0"/><feBlend in2="BackgroundImageFix" result="effect1_dropShadow"/><feBlend in="SourceGraphic" in2="effect1_dropShadow" result="shape"/></filter><filter id="filter1_d" x=".235" y="0" width="33.759" height="33" filterUnits="userSpaceOnUse" color-interpolation-filters="sRGB"><feFlood flood-opacity="0" result="BackgroundImageFix"/><feColorMatrix in="SourceAlpha" values="0 0 0 0 0 0 0 0 0 0 0 0 0 0 0 0 0 0 127 0"/><feOffset dy="4"/><feGaussianBlur stdDeviation="4.5"/><feColorMatrix values="0 0 0 0 0.443137 0 0 0 0 0.317647 0 0 0 0 0.960784 0 0 0 0.2 0"/><feBlend in2="BackgroundImageFix" result="effect1_dropShadow"/><feBlend in="SourceGraphic" in2="effect1_dropShadow" result="shape"/></filter></defs></svg>