<svg width="21" height="25" viewBox="0 0 21 25" fill="none" xmlns="http://www.w3.org/2000/svg">
<path d="M17.867 0H7.36387C5.83822 0 4.59694 1.24127 4.59694 2.76692V3.10651H2.76692C1.24127 3.10651 0 4.34778 0 5.87344V22.2332C0 23.7588 1.24127 25.0001 2.76692 25.0001H13.27C14.7957 25.0001 16.0368 23.7588 16.0368 22.2332V21.8936H17.8668C19.3925 21.8936 20.6338 20.6523 20.6338 19.1267V2.76692C20.6339 1.24127 19.3926 0 17.867 0ZM14.2521 22.2332C14.2521 22.7747 13.8115 23.2153 13.2701 23.2153H2.76692C2.22541 23.2153 1.7848 22.7747 1.7848 22.2332V5.87332C1.7848 5.33181 2.22541 4.8912 2.76692 4.8912H13.27C13.8115 4.8912 14.252 5.33181 14.252 5.87332V22.2332H14.2521ZM18.8491 19.1267C18.8491 19.6682 18.4085 20.1088 17.867 20.1088H16.0369V5.87332C16.0369 4.34767 14.7957 3.10639 13.2701 3.10639H6.38175V2.7668C6.38175 2.22529 6.82236 1.78469 7.36387 1.78469H17.867C18.4085 1.78469 18.8491 2.22529 18.8491 2.7668V19.1267Z" fill="#092136"/>
</svg>
