<svg width="15" height="14" viewBox="0 0 15 14" fill="none" xmlns="http://www.w3.org/2000/svg">
<g clip-path="url(#clip0)">
<path d="M13.8444 8.84676C13.6381 8.84676 13.4708 8.9991 13.4708 9.18706V12.2086C13.4701 12.7722 12.9688 13.229 12.3501 13.2295H1.86789C1.24915 13.229 0.747885 12.7722 0.747155 12.2086V3.34062C0.747885 2.77712 1.24915 2.32037 1.86789 2.31971H5.18485C5.39119 2.31971 5.55843 2.16737 5.55843 1.9794C5.55843 1.79157 5.39119 1.6391 5.18485 1.6391H1.86789C0.836756 1.64016 0.00116743 2.40133 0 3.34062V12.2087C0.00116743 13.148 0.836756 13.9092 1.86789 13.9102H12.3501C13.3812 13.9092 14.2168 13.148 14.218 12.2087V9.18706C14.218 8.9991 14.0508 8.84676 13.8444 8.84676Z" fill="#092136" fill-opacity="0.8"/>
<path d="M14.0698 0.763484C13.4133 0.165427 12.3489 0.165427 11.6923 0.763484L5.02746 6.83471C4.98178 6.87632 4.9488 6.9279 4.93158 6.98453L4.05514 9.86687C4.01909 9.98505 4.05572 10.1116 4.15087 10.1984C4.24616 10.2851 4.38508 10.3184 4.51481 10.2857L7.67899 9.48722C7.74115 9.47153 7.79777 9.44149 7.84345 9.39988L14.5082 3.32852C15.1637 2.73007 15.1637 1.76126 14.5082 1.16281L14.0698 0.763484ZM5.84145 7.05591L11.2961 2.08695L13.0553 3.68943L7.60048 8.65839L5.84145 7.05591ZM5.49005 7.69823L6.8955 8.97863L4.95143 9.46927L5.49005 7.69823ZM13.9799 2.84731L13.5837 3.20822L11.8244 1.6056L12.2207 1.24469C12.5854 0.9125 13.1767 0.9125 13.5414 1.24469L13.9799 1.64402C14.344 1.97661 14.344 2.51485 13.9799 2.84731Z" fill="#092136" fill-opacity="0.8"/>
</g>
<defs>
<clipPath id="clip0">
<rect width="15" height="13.664" fill="white" transform="translate(0 0.263153)"/>
</clipPath>
</defs>
</svg>
